<svg id="Layer_1" data-name="Layer 1" xmlns="http://www.w3.org/2000/svg" viewBox="0 0 488.42 488.42"><path d="M244.21,39A205.22,205.22,0,0,1,389.32,389.32,205.21,205.21,0,1,1,99.11,99.11,203.85,203.85,0,0,1,244.21,39m0-39C109.34,0,0,109.34,0,244.21S109.34,488.42,244.21,488.42,488.42,379.09,488.42,244.21,379.09,0,244.21,0Z"/><path d="M211.77,180.67c0-9.12,3.32-24.41,25.58-24.41h10.73V112.91l-.88-.4c-.31-.14-7.83-3.42-26.1-3.42-19.3,0-35.44,5.93-46.65,17.16-11.51,11.53-17.6,28.47-17.6,49v35.13H114.7v51h42.15V379.44h54.92V261.37h64.42V379.55h54.92V210.38H211.77Z"/><path d="M303.92,169.42c20.52,0,34.31-14.12,34.31-35.15,0-20.27-13.79-33.89-34.31-33.89-20.78,0-34.74,13.79-34.74,34.31C269.18,155.47,283.14,169.42,303.92,169.42Z"/></svg>