<svg id="Layer_1" data-name="Layer 1" xmlns="http://www.w3.org/2000/svg" xmlns:xlink="http://www.w3.org/1999/xlink" viewBox="0 0 776.06 776.06"><defs><style>.cls-1{fill:url(#linear-gradient);}.cls-2{fill:#fff;}</style><linearGradient id="linear-gradient" y1="388.03" x2="776.06" y2="388.03" gradientUnits="userSpaceOnUse"><stop offset="0" stop-color="#00ff41"/><stop offset="1" stop-color="#adff00"/></linearGradient></defs><path class="cls-1" d="M388,62A326.17,326.17,0,0,1,514.93,688.5,326.16,326.16,0,0,1,261.13,87.57,323.92,323.92,0,0,1,388,62m0-62C173.73,0,0,173.73,0,388s173.73,388,388,388,388-173.72,388-388S602.34,0,388,0Z"/><path class="cls-2" d="M336.48,287.06c0-14.48,5.28-38.78,40.64-38.78h17.06V179.4l-1.41-.63c-.49-.22-12.44-5.44-41.46-5.44-30.68,0-56.31,9.43-74.13,27.27-18.29,18.32-28,45.24-28,77.86v55.82h-67v81h67V602.9h87.26V415.3H438.85V603.07h87.26V334.28H336.48Z"/><path class="cls-2" d="M482.9,269.2c32.61,0,54.51-22.45,54.51-55.86,0-32.21-21.9-53.84-54.51-53.84-33,0-55.19,21.9-55.19,54.51C427.71,247,449.89,269.2,482.9,269.2Z"/></svg>