<?xml version="1.0" encoding="utf-8"?>
<!-- Generator: Adobe Illustrator 24.2.1, SVG Export Plug-In . SVG Version: 6.00 Build 0)  -->
<svg version="1.1" id="Layer_1" xmlns="http://www.w3.org/2000/svg" xmlns:xlink="http://www.w3.org/1999/xlink" x="0px" y="0px"
	 viewBox="0 0 492.6 492.6" style="enable-background:new 0 0 492.6 492.6;" xml:space="preserve">
<style type="text/css">
	.st0{fill:#39FF14;}
	.st1{fill:#FFFFFF;}
</style>
<g>
	<path d="M445.6,246.3c0-53.2-20.7-103.3-58.4-140.9C349.6,67.7,299.5,47,246.3,47c-53.2,0-103.3,20.7-140.9,58.4
		C67.7,143,47,193.1,47,246.3c0,53.2,20.7,103.3,58.4,140.9c37.6,37.6,87.7,58.4,140.9,58.4c53.2,0,103.3-20.7,140.9-58.4
		C424.9,349.6,445.6,299.5,445.6,246.3z"/>
	<path class="st0" d="M246.3,0C110.3,0,0,110.3,0,246.3s110.3,246.3,246.3,246.3s246.3-110.3,246.3-246.3S382.3,0,246.3,0z
		 M105.4,387.2C67.7,349.6,47,299.5,47,246.3c0-53.2,20.7-103.3,58.4-140.9C143,67.7,193.1,47,246.3,47s103.3,20.7,140.9,58.4
		c37.6,37.6,58.4,87.7,58.4,140.9c0,53.2-20.7,103.3-58.4,140.9c-37.6,37.6-87.7,58.4-140.9,58.4C193.1,445.6,143,424.9,105.4,387.2
		z"/>
	<path class="st1" d="M338.1,328.1c-5.9,0-9.8-0.8-11.7-2.5c-1.9-1.6-2.9-5.2-2.9-10.7V190.9H221.9v-1.8c0-16.8,2.7-28.4,8.1-34.5
		c5.4-6.2,13.4-9.3,23.9-9.3c7.4,0,13.2,1.6,17.2,4.9c4,3.3,6,8.6,6,16.1v1.1h37.6v-37.6c-9.8-5-19.9-8.7-30.2-11
		c-10.3-2.3-21.2-3.4-32.8-3.4c-16.5,0-31.1,2.8-43.8,8.5c-12.7,5.6-21.7,13.4-27,23.2c-5.3,9.8-8,23.4-8,40.7v3.1h-22.2v34h22.2v20
		h-22.2v34h22.2v35.3c0,7.2-1.3,11.4-3.9,12.4c-2.6,1-7.2,1.6-13.9,1.6h-4.4v27.6h88.1v-27.6h-2.3c-6,0-10-0.8-11.8-2.4
		c-1.9-1.6-2.8-5.2-2.8-10.8v-90.1h38.9c6,0,9.8,1,11.5,2.9c1.6,1.9,2.5,6.1,2.5,12.6v74.5c0,5.5-0.9,9.1-2.7,10.8
		c-1.8,1.7-5.6,2.5-11.2,2.5h-3.3v27.6h84.4v-27.6H338.1z"/>
</g>
</svg>
