<svg id="Layer_1" data-name="Layer 1" xmlns="http://www.w3.org/2000/svg" xmlns:xlink="http://www.w3.org/1999/xlink" viewBox="0 0 1786.28 488.42"><defs><style>.cls-1{fill:url(#linear-gradient);}.cls-2{fill:#fff;}</style><linearGradient id="linear-gradient" y1="244.21" x2="488.42" y2="244.21" gradientUnits="userSpaceOnUse"><stop offset="0" stop-color="#00ff41"/><stop offset="1" stop-color="#adff00"/></linearGradient></defs><path class="cls-1" d="M244.21,39A205.22,205.22,0,0,1,389.32,389.32,205.21,205.21,0,1,1,99.11,99.11,203.85,203.85,0,0,1,244.21,39m0-39C109.34,0,0,109.34,0,244.21S109.34,488.42,244.21,488.42,488.42,379.09,488.42,244.21,379.09,0,244.21,0Z"/><path class="cls-2" d="M729.45,333.21c0,10.17-1.81,18.25-5.37,24a39.83,39.83,0,0,1-12.88,13.58,47.45,47.45,0,0,1-15.79,6.31,83.38,83.38,0,0,1-14.1,1.69,75.28,75.28,0,0,1-14.21-1.69,44,44,0,0,1-15.85-6.29,40.83,40.83,0,0,1-13-13.61c-3.56-5.77-5.36-13.85-5.36-24V41.83H560.14V333.21a140.34,140.34,0,0,0,2.16,23.4,118.91,118.91,0,0,0,22.41,51.19,102.33,102.33,0,0,0,22.88,21.66,110.6,110.6,0,0,0,31.91,15.13c12.16,3.68,26.36,5.55,42.22,5.55s29.69-1.82,41.92-5.55a114,114,0,0,0,31.8-14.93,105.28,105.28,0,0,0,22.69-21.56A119.35,119.35,0,0,0,792.83,383a124.57,124.57,0,0,0,7.71-25.69,140.92,140.92,0,0,0,2.15-23.38v-292l-73.24-.21Z"/><path class="cls-2" d="M1031.56,225.1l-82.69-42.55a93,93,0,0,1-9.48-5.74,36.63,36.63,0,0,1-7.59-6.92,31.48,31.48,0,0,1-5.23-8.75,30.79,30.79,0,0,1-2-11.49c0-6.74,1.28-12.58,3.82-17.38a34.59,34.59,0,0,1,10.06-12.17,43,43,0,0,1,14.59-7.24,63,63,0,0,1,17.24-2.34c15.48,0,27.58,3.8,36,11.31s12.57,17.76,12.57,31.06v10.39h73.65V152.89c0-17-3-32.65-9-46.38a108.3,108.3,0,0,0-25.34-36.35,112.91,112.91,0,0,0-38.77-23.56c-14.71-5.51-31.23-8.31-49.11-8.31a133.3,133.3,0,0,0-47.11,8.11,117.35,117.35,0,0,0-37.55,22.85,105.15,105.15,0,0,0-24.72,34.92,109.26,109.26,0,0,0-9,44.17c0,20.56,4.85,39.33,14.42,55.79,9.66,16.65,24.31,30.2,43.55,40.28l86.73,45.79c9.7,5.1,17,11.3,21.58,18.42a43.1,43.1,0,0,1,6.76,24.09,42.62,42.62,0,0,1-4,18.44,45.91,45.91,0,0,1-11.31,14.9,57.51,57.51,0,0,1-17.8,10.16,65.51,65.51,0,0,1-22.66,3.72,59.65,59.65,0,0,1-20.92-3.41,48.42,48.42,0,0,1-16-9.61A41.68,41.68,0,0,1,922,352.34a46.64,46.64,0,0,1-3.68-18.52V323.13H845.49v10.69a118.92,118.92,0,0,0,9.15,47,108.4,108.4,0,0,0,25.75,36.86,117.81,117.81,0,0,0,39.27,24c15.11,5.65,31.94,8.52,50,8.52a144.36,144.36,0,0,0,50.33-8.72,123.8,123.8,0,0,0,40.56-24.34,111,111,0,0,0,36.75-83.36c0-23.86-5.57-45.22-16.55-63.49C1069.74,251.56,1053.18,236.37,1031.56,225.1Z"/><path class="cls-2" d="M1377.55,121.65h0A142.6,142.6,0,0,0,1367,95.07a88.81,88.81,0,0,0-20.46-26c-8.5-7.7-19.44-14.28-32.53-19.58-12.82-5.13-28.78-7.73-47.45-7.73H1140.43V445.08h127.64c18.5,0,34.33-2.6,47-7.72,13.06-5.21,23.58-11.65,32.16-19.71a91.14,91.14,0,0,0,19.93-26.44,148.47,148.47,0,0,0,10.45-26.95,117.67,117.67,0,0,0,4.21-22.58c.52-5.91.71-10.39.71-12.61V156.32c0-1.93-.27-5.69-.81-12.36C1381.37,138.12,1380,131,1377.55,121.65ZM1296.33,364.2a31.38,31.38,0,0,1-13.35,6.28,70.15,70.15,0,0,1-15.72,1.77h-53.39V114.46h52.89a70.32,70.32,0,0,1,15.83,1.87,34.78,34.78,0,0,1,13.68,6.41,33.56,33.56,0,0,1,9.91,13c2.63,5.64,4,13.08,4,22.1V328.56c0,9.2-1.33,16.77-4,22.52A35.62,35.62,0,0,1,1296.33,364.2Z"/><rect class="cls-2" x="1712.63" y="41.32" width="73.64" height="404.37"/><polygon class="cls-2" points="1430.73 445.18 1504.37 445.18 1504.37 279.72 1652.35 279.72 1652.35 206.88 1504.37 206.88 1504.37 114.56 1664.48 114.56 1664.48 41.72 1430.73 41.72 1430.73 445.18"/><path class="cls-2" d="M211.77,180.67c0-9.12,3.32-24.41,25.58-24.41h10.73V112.91l-.88-.4c-.31-.14-7.83-3.42-26.1-3.42-19.3,0-35.44,5.93-46.65,17.16-11.51,11.53-17.6,28.47-17.6,49v35.13H114.7v51h42.15V379.44h54.92V261.37h64.42V379.55h54.92V210.38H211.77Z"/><path class="cls-2" d="M303.92,169.42c20.52,0,34.31-14.12,34.31-35.15,0-20.27-13.79-33.89-34.31-33.89-20.78,0-34.74,13.79-34.74,34.31C269.18,155.47,283.14,169.42,303.92,169.42Z"/></svg>