<?xml version="1.0" encoding="utf-8"?>
<!-- Generator: Adobe Illustrator 24.2.1, SVG Export Plug-In . SVG Version: 6.00 Build 0)  -->
<svg version="1.1" id="Layer_1" xmlns="http://www.w3.org/2000/svg" xmlns:xlink="http://www.w3.org/1999/xlink" x="0px" y="0px"
	 viewBox="0 0 1448.1 502.5" style="enable-background:new 0 0 1448.1 502.5;" xml:space="preserve">
<style type="text/css">
	.st0{fill:#39FF14;}
	.st1{fill:#FFFFFF;}
</style>
<g>
	<path d="M454.5,251.2c0-54.3-21.1-105.4-59.6-143.7c-38.4-38.5-89.5-59.6-143.7-59.6s-105.4,21.1-143.7,59.6
		C69.1,145.9,47.9,197,47.9,251.2c0,54.3,21.1,105.4,59.6,143.7c38.4,38.4,89.5,59.6,143.7,59.6s105.4-21.1,143.7-59.6
		C433.4,356.6,454.5,305.5,454.5,251.2z"/>
	<g>
		<path d="M586.2,335.4v-270h67.1v264.8c0,31,15.5,48.5,43.9,48.5s43.9-17.6,43.9-48.5V65.4h67.1v270.5c0,63-45.4,106.3-111,106.3
			S586.2,398.9,586.2,335.4z"/>
		<path d="M862.3,322.5h65.6c-0.5,36.1,18.6,56.3,49,56.3c29.4,0,47-20.1,47-41.8c0-19.6-10.3-31.5-31.5-42.3l-53.2-27.9
			c-43.4-22.7-72.8-57.3-72.8-101.7c0-61.4,47.5-104.8,111.5-104.8c67.1,0,111.5,42.3,111.5,113.6h-65.6c-1-33-18.1-50.1-45.4-50.1
			c-29.9,0-41.8,19.6-41.8,38.2c0,20.7,12.9,31,35.1,42.3l55.8,28.9c40.8,21.2,66.6,55.8,66.6,98.6c0,57.8-45.4,110.5-117.2,110.5
			C904.6,442.2,860.7,390.6,862.3,322.5z"/>
		<path d="M1448.1,65.4v371.7h-66.6V196l-60.9,142.5h-42.3L1217.4,196v241.1h-66.6V65.4h74.3l74.3,177.1l74.3-177.1H1448.1z"/>
	</g>
	<path class="st0" d="M251.2,0C112.5,0,0,112.5,0,251.2s112.5,251.2,251.2,251.2s251.2-112.5,251.2-251.2S389.9,0,251.2,0z
		 M107.5,394.9c-38.5-38.4-59.6-89.5-59.6-143.7c0-54.3,21.1-105.4,59.6-143.7c38.4-38.5,89.5-59.6,143.7-59.6
		s105.4,21.1,143.7,59.6c38.4,38.4,59.6,89.5,59.6,143.7c0,54.3-21.1,105.4-59.6,143.7c-38.4,38.4-89.5,59.6-143.7,59.6
		S145.9,433.4,107.5,394.9z"/>
	<path class="st1" d="M258.2,167.2c9.2,0,16.6,2.9,22.3,8.6c5.7,5.7,8.5,12.4,8.5,20.1c0,4.3-0.2,6.6-0.7,7.1l0.7,0.8
		c8.2-11.4,17.3-20.3,27.3-26.8c10-6.5,20.3-9.8,30.8-9.8c10.4,0,18.5,2.9,24.3,8.7c5.8,5.8,8.7,13.3,8.7,22.5
		c0,3.7-0.6,7.6-1.7,11.7c-1.1,4.1-2,7.2-2.5,9.3L356,283.9c-0.8,2-1.1,3.8-1.1,5.6c0,2.2,0.5,3.8,1.4,4.8c0.9,1,2.2,1.6,3.9,1.6
		c1.5,0,3.7-0.6,6.6-1.9c2.9-1.3,6.2-3.1,9.9-5.5l-7.7,32.3c-6.6,4.5-13.4,8-20.6,10.6c-7.2,2.6-13.9,3.9-20.3,3.9
		c-6.8,0-12.6-2.1-17.6-6.2c-4.9-4.2-7.4-10.1-7.4-17.9c0-3.4,0.3-6.9,1-10.5c0.7-3.6,1.6-7.4,2.8-11.3l17.4-59.1
		c1.2-3.9,1.9-6.5,2.1-7.8c0.2-1.3,0.2-2.3,0.2-3.2c0-2.7-0.9-4.9-2.6-6.6c-1.8-1.6-3.8-2.5-6.1-2.5c-5.6,0-11.9,3.4-19,10.3
		c-7.1,6.8-13.4,15.5-18.9,26.1c-5.5,10.6-9.2,19.6-11.2,27l-4.4,15.4l-12.3,41.5H206l27.6-95.9c1-3.3,1.7-6.2,2.2-8.9
		c0.5-2.6,0.7-4.9,0.7-6.7c0-2.1-0.8-4.1-2.4-6c-1.6-1.9-3.6-2.9-6-2.9c-8.4,0-17.5,6.5-27.2,19.5c-9.7,13-17.1,28.2-22.2,45.6
		l-16.1,55.1h-44.3l32.2-112.3c1.1-5,1.6-8.5,1.6-10.3c0-1.3-0.5-2.6-1.6-3.9c-1-1.3-2.9-1.9-5.5-1.9c-1.4,0-3.4,0.1-6.1,0.3
		c-2.6,0.2-4.6,0.3-5.9,0.3l7.4-25.9l65.5-7.1c-0.4,4.8-1.3,10.1-2.7,15.9c-1.4,5.8-2.9,11.5-4.7,17.2l0.7,0.8
		c9.7-12.7,19.4-22,29-27.8C237.8,170.1,247.8,167.2,258.2,167.2z"/>
</g>
</svg>
