<?xml version="1.0" encoding="utf-8"?>
<!-- Generator: Adobe Illustrator 24.2.1, SVG Export Plug-In . SVG Version: 6.00 Build 0)  -->
<svg version="1.1" id="Layer_1" xmlns="http://www.w3.org/2000/svg" xmlns:xlink="http://www.w3.org/1999/xlink" x="0px" y="0px"
	 viewBox="0 0 492.6 492.6" style="enable-background:new 0 0 492.6 492.6;" xml:space="preserve">
<style type="text/css">
	.st0{fill:#39FF14;}
	.st1{fill:#FFFFFF;}
</style>
<g>
	<path d="M387.2,105.4C349.6,67.7,299.5,47,246.3,47S143,67.7,105.4,105.4C67.7,143,47,193.1,47,246.3c0,53.2,20.7,103.3,58.4,140.9
		c37.6,37.6,87.7,58.4,140.9,58.4s103.3-20.7,140.9-58.4c37.6-37.6,58.4-87.7,58.4-140.9S424.9,143,387.2,105.4z"/>
	<path class="st0" d="M302.7,6.3C123-33.6-33.6,123,6.3,302.7C26.6,394.2,98.4,466,189.9,486.3c179.7,39.9,336.3-116.8,296.4-296.4
		C466,98.4,394.2,26.6,302.7,6.3z M246.3,445.6c-53.2,0-103.3-20.7-140.9-58.4C67.7,349.6,47,299.5,47,246.3
		c0-53.2,20.7-103.3,58.4-140.9C143,67.7,193.1,47,246.3,47s103.3,20.7,140.9,58.4c37.6,37.6,58.4,87.7,58.4,140.9
		c0,53.2-20.7,103.3-58.4,140.9C349.6,424.9,299.5,445.6,246.3,445.6z"/>
	<g>
		<path class="st1" d="M269,373.6l43.6-25.2l0,0l38.7-22.3c0.1,0,0.1-0.1,0-0.2l-38.7-22.3c0,0-0.1,0-0.1,0l-1.6,0.9l0,0l-64.6,37.3
			c0,0-0.1,0-0.1,0l-121.4-70.1c-0.1,0-0.1,0-0.1,0.1l0,39.1c0,3.5,1.8,6.7,4.8,8.4l111.9,64.6c3,1.7,6.7,1.7,9.7,0L269,373.6z"/>
		<path class="st1" d="M192.3,182l54-31.2c0,0,0.1,0,0.1,0l121.4,70.1c0.1,0,0.1,0,0.1-0.1l0-39.1c0-3.5-1.8-6.7-4.8-8.4
			l-111.9-64.6c-3-1.7-6.8-1.7-9.8,0l-34,19.6l0,0L180,144.2l0,0l-15.3,8.8l-1.2,0.7l0,0l-22.3,12.9c-0.1,0-0.1,0.1,0,0.2l38.7,22.3
			c0,0,0.1,0,0.1,0L192.3,182L192.3,182z"/>
		<path class="st1" d="M124.7,195.2l0,39.1c0,3.5,1.8,6.7,4.8,8.4l111.9,64.6c3,1.7,6.7,1.7,9.7,0l33.9-19.6c0.1,0,0.1-0.1,0-0.2
			l-160.2-92.5C124.8,195.1,124.7,195.1,124.7,195.2z"/>
		<path class="st1" d="M241.5,185.3l-33.9,19.6c-0.1,0-0.1,0.1,0,0.2l160.2,92.5c0.1,0,0.1,0,0.1-0.1l0-39.1c0-3.5-1.8-6.7-4.8-8.4
			l-111.9-64.6C248.1,183.5,244.5,183.5,241.5,185.3z"/>
	</g>
</g>
</svg>
