<?xml version="1.0" encoding="utf-8"?>
<!-- Generator: Adobe Illustrator 24.2.1, SVG Export Plug-In . SVG Version: 6.00 Build 0)  -->
<svg version="1.1" id="Layer_1" xmlns="http://www.w3.org/2000/svg" xmlns:xlink="http://www.w3.org/1999/xlink" x="0px" y="0px"
	 viewBox="0 0 2178.3 492.6" style="enable-background:new 0 0 2178.3 492.6;" xml:space="preserve">
<style type="text/css">
	.st0{fill:#39FF14;}
	.st1{fill:#FFFFFF;}
</style>
<g>
	<path d="M387.2,105.4C349.6,67.7,299.5,47,246.3,47S143,67.7,105.4,105.4C67.7,143,47,193.1,47,246.3c0,53.2,20.7,103.3,58.4,140.9
		c37.6,37.6,87.7,58.4,140.9,58.4s103.3-20.7,140.9-58.4c37.6-37.6,58.4-87.7,58.4-140.9S424.9,143,387.2,105.4z"/>
	<path class="st0" d="M302.7,6.3C123-33.6-33.6,123,6.3,302.7C26.6,394.2,98.4,466,189.9,486.3c179.7,39.9,336.3-116.8,296.4-296.4
		C466,98.4,394.2,26.6,302.7,6.3z M246.3,445.6c-53.2,0-103.3-20.7-140.9-58.4C67.7,349.6,47,299.5,47,246.3
		c0-53.2,20.7-103.3,58.4-140.9C143,67.7,193.1,47,246.3,47s103.3,20.7,140.9,58.4c37.6,37.6,58.4,87.7,58.4,140.9
		c0,53.2-20.7,103.3-58.4,140.9C349.6,424.9,299.5,445.6,246.3,445.6z"/>
	<g>
		<path class="st1" d="M269,373.6l43.6-25.2l0,0l38.7-22.3c0.1,0,0.1-0.1,0-0.2l-38.7-22.3c0,0-0.1,0-0.1,0l-1.6,0.9l0,0l-64.6,37.3
			c0,0-0.1,0-0.1,0l-121.4-70.1c-0.1,0-0.1,0-0.1,0.1l0,39.1c0,3.5,1.8,6.7,4.8,8.4l111.9,64.6c3,1.7,6.7,1.7,9.7,0L269,373.6z"/>
		<path class="st1" d="M192.3,182l54-31.2c0,0,0.1,0,0.1,0l121.4,70.1c0.1,0,0.1,0,0.1-0.1l0-39.1c0-3.5-1.8-6.7-4.8-8.4
			l-111.9-64.6c-3-1.7-6.8-1.7-9.8,0l-34,19.6l0,0L180,144.2l0,0l-15.3,8.8l-1.2,0.7l0,0l-22.3,12.9c-0.1,0-0.1,0.1,0,0.2l38.7,22.3
			c0,0,0.1,0,0.1,0L192.3,182L192.3,182z"/>
		<path class="st1" d="M124.7,195.2l0,39.1c0,3.5,1.8,6.7,4.8,8.4l111.9,64.6c3,1.7,6.7,1.7,9.7,0l33.9-19.6c0.1,0,0.1-0.1,0-0.2
			l-160.2-92.5C124.8,195.1,124.7,195.1,124.7,195.2z"/>
		<path class="st1" d="M241.5,185.3l-33.9,19.6c-0.1,0-0.1,0.1,0,0.2l160.2,92.5c0.1,0,0.1,0,0.1-0.1l0-39.1c0-3.5-1.8-6.7-4.8-8.4
			l-111.9-64.6C248.1,183.5,244.5,183.5,241.5,185.3z"/>
	</g>
	<g>
		<path class="st1" d="M593.6,317.5h65.6c-0.5,36.1,18.6,56.3,49,56.3c29.4,0,47-20.1,47-41.8c0-19.6-10.3-31.5-31.5-42.3
			l-53.2-27.9c-43.4-22.7-72.8-57.3-72.8-101.7c0-61.4,47.5-104.8,111.5-104.8c67.1,0,111.5,42.3,111.5,113.6h-65.6
			c-1-33-18.1-50.1-45.4-50.1c-29.9,0-41.8,19.6-41.8,38.2c0,20.7,12.9,31,35.1,42.3l55.8,28.9c40.8,21.2,66.6,55.8,66.6,98.6
			c0,57.8-45.4,110.5-117.2,110.5C635.9,437.3,592,385.7,593.6,317.5z"/>
		<path class="st1" d="M1095.4,124h-82.1v308.2h-67.1V124h-82.1V60.5h231.3V124z"/>
		<path class="st1" d="M1280.5,348h-100.2l-20.6,84.1h-68.1l95-371.7h87.8l95,371.7h-68.1L1280.5,348z M1265,284.5l-34.6-139.4
			l-34.6,139.4H1265z"/>
		<path class="st1" d="M1645.7,321.2c0,64-42.3,111-122.9,111h-102.2V60.5h114.6c67.1,0,103.2,37.2,103.2,99.1
			c0,37.2-15,66.1-39.8,78.5C1626.1,250.9,1645.7,272.6,1645.7,321.2z M1487.7,124v83.6h41.3c27.9,0,42.8-16.5,42.8-43.9
			c0-28.4-15-39.8-49.6-39.8H1487.7z M1579.1,318.1c0-31.5-18.1-47-50.1-47h-41.3v97.6h40.8C1561,368.6,1579.1,349.5,1579.1,318.1z"
			/>
		<path class="st1" d="M1704.9,60.5h67.1v308.2h145.1v63.5h-212.2V60.5z"/>
		<path class="st1" d="M2032.7,124v84.1h134.7v63.5h-134.7v97.1h145.6v63.5h-212.7V60.5h212.7V124H2032.7z"/>
	</g>
</g>
</svg>
