<?xml version="1.0" encoding="utf-8"?>
<!-- Generator: Adobe Illustrator 26.3.1, SVG Export Plug-In . SVG Version: 6.00 Build 0)  -->
<svg version="1.1" id="Layer_1" xmlns="http://www.w3.org/2000/svg" xmlns:xlink="http://www.w3.org/1999/xlink" x="0px" y="0px"
	 viewBox="0 0 776.1 776.1" style="enable-background:new 0 0 776.1 776.1;" xml:space="preserve">
<path d="M388,62c44,0,86.7,8.6,126.9,25.6c38.8,16.4,73.7,39.9,103.7,69.9c30,30,53.5,64.8,69.9,103.7c17,40.2,25.6,82.9,25.6,126.9
	s-8.6,86.7-25.6,126.9c-16.4,38.8-39.9,73.7-69.9,103.7c-30,30-64.8,53.5-103.7,69.9c-40.2,17-82.9,25.6-126.9,25.6
	s-86.7-8.6-126.9-25.6c-38.8-16.4-73.7-39.9-103.7-69.9c-30-30-53.5-64.8-69.9-103.7C70.6,474.8,62,432.1,62,388
	s8.6-86.7,25.6-126.9c16.4-38.8,39.9-73.7,69.9-103.7c30-30,64.8-53.5,103.7-69.9C301.3,70.6,344,62,388,62 M388,0
	C173.7,0,0,173.7,0,388s173.7,388,388,388c214.3,0,388-173.7,388-388S602.3,0,388,0L388,0z"/>
<g>
	<path d="M500.3,488.5L388,553.3L175.9,430.8l0,73c0,7.1,3.8,13.7,9.9,17.2l192.3,111c3.1,1.8,6.5,2.6,9.9,2.6
		c3.4,0,6.9-0.9,9.9-2.6l30.8-17.8l146.4-84.5l-71.4-41.2C502.6,487.9,501.3,487.9,500.3,488.5z"/>
	<path d="M590.3,255L398,144.1c-6.2-3.6-13.8-3.6-20,0L200.9,246.3l73.1,42.2l114-65.8l212.1,122.5l0-73
		C600.2,265.1,596.4,258.6,590.3,255z"/>
	<path d="M185.7,384.6l192.5,111.1c3,1.8,6.4,2.6,9.8,2.6s6.8-0.9,9.8-2.6l63.3-36.6L175.9,294.4l0,73.1
		C175.9,374.6,179.7,381.1,185.7,384.6z"/>
	<path d="M590.3,391.4l-192.3-111c-6.1-3.5-13.7-3.5-19.8,0l-63.2,36.5l285.3,164.7l0-73C600.2,401.5,596.4,394.9,590.3,391.4z"/>
</g>
</svg>
